<?xml version="1.0" encoding="UTF-8" standalone="no"?>
<!-- Created with Inkscape (http://www.inkscape.org/) -->

<svg
   xmlns:dc="http://purl.org/dc/elements/1.1/"
   xmlns:cc="http://creativecommons.org/ns#"
   xmlns:rdf="http://www.w3.org/1999/02/22-rdf-syntax-ns#"
   xmlns:svg="http://www.w3.org/2000/svg"
   xmlns="http://www.w3.org/2000/svg"
   xmlns:sodipodi="http://sodipodi.sourceforge.net/DTD/sodipodi-0.dtd"
   xmlns:inkscape="http://www.inkscape.org/namespaces/inkscape"
   width="86.924767mm"
   height="18mm"
   viewBox="0 0 308.00113 63.779527"
   id="svg2"
   version="1.1"
   inkscape:version="0.91 r13725"
   sodipodi:docname="logo_zut.svg">
  <defs
     id="defs4" />
  <sodipodi:namedview
     id="base"
     pagecolor="#ffffff"
     bordercolor="#666666"
     borderopacity="1.0"
     inkscape:pageopacity="0.0"
     inkscape:pageshadow="2"
     inkscape:zoom="2.24"
     inkscape:cx="122.4551"
     inkscape:cy="150.20967"
     inkscape:document-units="px"
     inkscape:current-layer="layer1"
     showgrid="false"
     fit-margin-top="0"
     fit-margin-left="0"
     fit-margin-right="0"
     fit-margin-bottom="0"
     inkscape:window-width="1580"
     inkscape:window-height="1028"
     inkscape:window-x="1692"
     inkscape:window-y="-8"
     inkscape:window-maximized="1" />
  <metadata
     id="metadata7">
    <rdf:RDF>
      <cc:Work
         rdf:about="">
        <dc:format>image/svg+xml</dc:format>
        <dc:type
           rdf:resource="http://purl.org/dc/dcmitype/StillImage" />
        <dc:title></dc:title>
      </cc:Work>
    </rdf:RDF>
  </metadata>
  <g
     inkscape:label="Layer 1"
     inkscape:groupmode="layer"
     id="layer1"
     transform="translate(-136.62643,-515.43317)">
    <g
       id="g4138"
       transform="matrix(1.0239243,0,0,1.0239243,-162.94132,180.39755)">
      <path
         inkscape:connector-curvature="0"
         id="path4140"
         style="fill:none"
         d="m 303.1251,181.1197 211.2443,0 0,62.2893 -211.2443,0 0,-62.2893 z" />
      <g
         id="g4142" />
    </g>
    <path
       inkscape:connector-curvature="0"
       id="path4144"
       style="fill:#007e3f;fill-rule:evenodd"
       d="m 156.26814,578.97275 31.7698,-63.53958 -31.7698,0 -15.8858,31.77176 c -8.77058,17.54097 -1.65714,31.76782 15.8858,31.76782 z" />
    <path
       inkscape:connector-curvature="0"
       id="path4146"
       style="fill:#003d8f;fill-rule:evenodd"
       d="m 195.96786,515.43317 31.76963,0 -31.76963,63.53942 -31.76962,0 31.76962,-63.53942 z" />
    <path
       inkscape:connector-curvature="0"
       id="path4148"
       style="fill:#003d8f;fill-rule:evenodd"
       d="m 234.49084,579.17348 -0.41278,0 -2.58001,-5.99576 -2.57426,5.99576 -0.41262,0 -3.14952,-8.99658 1.67061,0 1.88314,5.77959 2.34435,-5.77959 0.40981,0 2.41687,5.77959 2.0238,-5.77959 1.53849,0 -3.15788,8.99658 z m 9.04678,-0.71591 0.60118,-1.51288 c 0.3056,0.22467 0.69031,0.41259 1.14771,0.56145 0.45775,0.15164 0.86756,0.22748 1.22962,0.22748 0.64008,0 1.15657,-0.17676 1.54407,-0.52799 0.39029,-0.35072 0.58379,-0.79698 0.58379,-1.33892 0,-0.40718 -0.1066,-0.78302 -0.32284,-1.13096 -0.21631,-0.34843 -0.76071,-0.72723 -1.63385,-1.13984 l -0.97095,-0.45216 c -0.81979,-0.38437 -1.39521,-0.83933 -1.72082,-1.36419 -0.32858,-0.5275 -0.4914,-1.15937 -0.4914,-1.90038 0,-0.8984 0.32005,-1.64501 0.95422,-2.23732 0.63746,-0.59215 1.45429,-0.88726 2.45085,-0.88726 1.33333,0 2.25965,0.21649 2.78156,0.64862 l -0.48516,1.43149 c -0.21909,-0.15997 -0.55604,-0.31118 -1.00491,-0.46004 -0.44937,-0.14891 -0.86493,-0.22189 -1.24964,-0.22189 -0.55819,0 -0.99935,0.15724 -1.3189,0.47726 -0.32282,0.31726 -0.48283,0.72706 -0.48283,1.22404 0,0.30838 0.0587,0.58657 0.17396,0.83932 0.11492,0.25258 0.27491,0.46283 0.48006,0.634 0.20466,0.1684 0.6258,0.40704 1.26309,0.71607 l 0.98819,0.46891 c 0.8198,0.387 1.39799,0.85328 1.72919,1.39193 0.33136,0.54209 0.49697,1.22681 0.49697,2.06055 0,0.90399 -0.36255,1.67291 -1.08962,2.30199 -0.72673,0.63172 -1.69817,0.94585 -2.91367,0.94585 -1.06959,0 -1.98195,-0.25276 -2.73987,-0.75513 z m 10.19007,-0.8477 4.8843,0 0,1.398 -7.33482,0 0,-0.40981 5.00788,-7.00083 -4.92631,0 0,-1.398 7.20582,0 0,0.44345 -4.83687,6.96719 z m 12.97147,-6.69507 -0.77466,1.10355 c -0.15724,-0.16012 -0.43773,-0.31182 -0.84196,-0.45231 -0.40439,-0.14282 -0.80026,-0.21582 -1.18726,-0.21582 -0.85098,0 -1.52455,0.29723 -2.02429,0.89233 -0.49959,0.59544 -0.7494,1.41196 -0.7494,2.44807 0,1.03002 0.25539,1.81617 0.76613,2.355 0.50863,0.54193 1.21566,0.81125 2.12244,0.81125 0.70195,0 1.40916,-0.27211 2.12244,-0.81404 l 0.61448,1.31659 c -0.83933,0.54194 -1.87806,0.81406 -3.11571,0.81406 -1.20155,0 -2.19252,-0.40425 -2.97835,-1.20992 -0.78336,-0.80535 -1.17659,-1.89727 -1.17659,-3.27294 0,-1.40358 0.40719,-2.52947 1.22123,-3.37995 0.81701,-0.85049 1.93125,-1.27426 3.3432,-1.27426 0.45773,0 0.94911,0.0954 1.48218,0.28606 0.53078,0.194 0.92354,0.39046 1.17612,0.59233 z m 3.3632,6.69507 4.88446,0 0,1.398 -7.3348,0 0,-0.40981 5.00771,-7.00083 -4.92632,0 0,-1.398 7.20598,0 0,0.44345 -4.83703,6.96719 z m 13.74383,-2.85459 -6.34993,0 c 0,1.03283 0.28378,1.82456 0.8477,2.37733 0.49961,0.48283 1.13967,0.72426 1.92599,0.72426 0.89235,0 1.63894,-0.26095 2.23732,-0.78008 l 0.65683,1.1254 c -0.24142,0.24143 -0.61219,0.44937 -1.11177,0.62612 -0.62301,0.23027 -1.31956,0.34517 -2.08848,0.34517 -1.10584,0 -2.04661,-0.37634 -2.82126,-1.12851 -0.8587,-0.82818 -1.29132,-1.93962 -1.29132,-3.33762 0,-1.4538 0.44379,-2.61874 1.32496,-3.49483 0.78894,-0.78583 1.72363,-1.17611 2.80437,-1.17611 1.25472,0 2.24011,0.35353 2.95323,1.06122 0.69046,0.67914 1.03563,1.58034 1.03563,2.70294 0,0.34795 -0.0418,0.66535 -0.12327,0.95471 z m -3.78977,-3.40506 c -0.69883,0 -1.28261,0.22697 -1.75447,0.67652 -0.44887,0.42656 -0.70147,0.95682 -0.76334,1.59429 l 4.8761,0 c 0,-0.63171 -0.19679,-1.15658 -0.59281,-1.57756 -0.43214,-0.46347 -1.02166,-0.69325 -1.76548,-0.69325 z m 12.20255,-0.43542 -0.77466,1.10355 c -0.15724,-0.16012 -0.43771,-0.31182 -0.84212,-0.45231 -0.40423,-0.14282 -0.80009,-0.21582 -1.18725,-0.21582 -0.85083,0 -1.52455,0.29723 -2.02414,0.89233 -0.49975,0.59544 -0.74956,1.41196 -0.74956,2.44807 0,1.03002 0.25539,1.81617 0.76629,2.355 0.50847,0.54193 1.21568,0.81125 2.12244,0.81125 0.70197,0 1.40918,-0.27211 2.12229,-0.81404 l 0.61464,1.31659 c -0.83932,0.54194 -1.87823,0.81406 -3.11572,0.81406 -1.2017,0 -2.19268,-0.40425 -2.97833,-1.20992 -0.78352,-0.80535 -1.1766,-1.89727 -1.1766,-3.27294 0,-1.40358 0.40702,-2.52947 1.22124,-3.37995 0.81701,-0.85049 1.93107,-1.27426 3.34318,-1.27426 0.45774,0 0.94897,0.0954 1.4822,0.28606 0.53078,0.194 0.92352,0.39046 1.1761,0.59233 z m 3.30724,-4.04481 c 0.26671,0 0.49698,0.0928 0.6849,0.28344 0.19069,0.18792 0.28326,0.41539 0.28326,0.67914 0,0.26702 -0.0925,0.49696 -0.28326,0.68538 -0.18792,0.19071 -0.41819,0.28327 -0.6849,0.28327 -0.26373,0 -0.49122,-0.0925 -0.67914,-0.28327 -0.18842,-0.18842 -0.28377,-0.41836 -0.28377,-0.68538 0,-0.26933 0.0925,-0.4968 0.28098,-0.68472 0.18514,-0.18513 0.41262,-0.27786 0.68193,-0.27786 z m -0.85638,12.13788 0,-7.49205 -1.20959,0 0,-1.31659 2.77318,0 0,8.80864 -1.56359,0 z m 9.46595,0 0,-5.1231 c 0,-0.93747 -0.14042,-1.59429 -0.42376,-1.9703 -0.28098,-0.37634 -0.75563,-0.56425 -1.41754,-0.56425 -0.3568,0 -0.73002,0.10932 -1.1203,0.32283 -0.3875,0.21319 -0.68767,0.47693 -0.89561,0.78861 l 0,6.54621 -1.56082,0 0,-8.80864 1.06681,0 0.49401,1.13703 c 0.5165,-0.86772 1.35894,-1.29985 2.52667,-1.29985 1.92844,0 2.89415,1.17332 2.89415,3.51994 l 0,5.45152 -1.56361,0 z m 5.39538,-12.13788 c 0.26654,0 0.4968,0.0928 0.68472,0.28344 0.19071,0.18792 0.28345,0.41539 0.28345,0.67914 0,0.26702 -0.0928,0.49696 -0.28345,0.68538 -0.18792,0.19071 -0.41818,0.28327 -0.68472,0.28327 -0.2639,0 -0.49138,-0.0925 -0.6793,-0.28327 -0.18842,-0.18842 -0.28378,-0.41836 -0.28378,-0.68538 0,-0.26933 0.0925,-0.4968 0.28099,-0.68472 0.18513,-0.18513 0.4126,-0.27786 0.68209,-0.27786 z m -0.85655,12.13788 0,-7.49205 -1.2096,0 0,-1.31659 2.7732,0 0,8.80864 -1.5636,0 z m 11.46465,-4.25259 -6.34993,0 c 0,1.03283 0.28377,1.82456 0.8477,2.37733 0.49959,0.48283 1.13984,0.72426 1.92599,0.72426 0.89233,0 1.63909,-0.26095 2.23732,-0.78008 l 0.65699,1.1254 c -0.24159,0.24143 -0.61235,0.44937 -1.11194,0.62612 -0.623,0.23027 -1.31938,0.34517 -2.08847,0.34517 -1.10586,0 -2.04661,-0.37634 -2.82111,-1.12851 -0.85885,-0.82818 -1.29149,-1.93962 -1.29149,-3.33762 0,-1.4538 0.44379,-2.61874 1.32498,-3.49483 0.78894,-0.78583 1.72361,-1.17611 2.80437,-1.17611 1.25472,0 2.24011,0.35353 2.95323,1.06122 0.69046,0.67914 1.03561,1.58034 1.03561,2.70294 0,0.34795 -0.0418,0.66535 -0.12327,0.95471 z m -3.78978,-3.40506 c -0.69866,0 -1.28261,0.22697 -1.7543,0.67652 -0.44903,0.42656 -0.70163,0.95682 -0.7635,1.59429 l 4.87609,0 c 0,-0.63171 -0.19678,-1.15658 -0.59265,-1.57756 -0.43229,-0.46347 -1.02166,-0.69325 -1.76564,-0.69325 z" />
    <path
       inkscape:connector-curvature="0"
       id="path4150"
       style="fill:#003d8f;fill-rule:evenodd"
       d="m 236.57125,547.39039 1.64517,0 0,8.24718 c 0,0.73543 0.23256,1.34171 0.69868,1.8134 0.46628,0.47463 1.08353,0.71327 1.85261,0.71327 0.81127,0 1.44872,-0.23025 1.91483,-0.69095 0.46579,-0.46005 0.69883,-1.08633 0.69883,-1.87478 l 0,-8.20812 1.64501,0 0,8.3793 c 0,1.21795 -0.37912,2.16708 -1.13983,2.84902 -0.75776,0.68487 -1.79387,1.02445 -3.10438,1.02445 -1.34779,0 -2.3862,-0.334 -3.11621,-1.00214 -0.72986,-0.66797 -1.09471,-1.62778 -1.09471,-2.87969 l 0,-8.37094 z m 16.21979,12.04811 0,-5.1231 c 0,-0.93748 -0.14041,-1.59445 -0.42377,-1.9703 -0.28097,-0.37634 -0.75545,-0.56426 -1.41752,-0.56426 -0.3568,0 -0.73002,0.10932 -1.12031,0.32284 -0.38749,0.21302 -0.68768,0.47677 -0.89562,0.78844 l 0,6.54638 -1.56081,0 0,-8.80866 1.0668,0 0.49401,1.1369 c 0.5165,-0.86756 1.35894,-1.29986 2.52667,-1.29986 1.92844,0 2.89431,1.17331 2.89431,3.51994 l 0,5.45168 -1.56376,0 z m 5.39539,-12.13789 c 0.26652,0 0.49679,0.0925 0.68471,0.28328 0.19088,0.18792 0.28344,0.41556 0.28344,0.6793 0,0.26704 -0.0925,0.49681 -0.28344,0.68521 -0.18792,0.19071 -0.41819,0.28328 -0.68471,0.28328 -0.26376,0 -0.49138,-0.0925 -0.67932,-0.28328 -0.1884,-0.1884 -0.28376,-0.41817 -0.28376,-0.68521 0,-0.26948 0.0925,-0.49696 0.28097,-0.68488 0.18513,-0.18514 0.41277,-0.2777 0.68211,-0.2777 z m -0.85657,12.13789 0,-7.49205 -1.20958,0 0,-1.31661 2.77318,0 0,8.80866 -1.5636,0 z m 12.18909,0.16559 -0.4126,0 -2.58018,-5.9959 -2.57411,5.9959 -0.41276,0 -3.14952,-8.99656 1.6706,0 1.88331,5.77943 2.34417,-5.77943 0.40998,0 2.41688,5.77943 2.02364,-5.77943 1.53865,0 -3.15806,8.99656 z m 11.80948,-4.41834 -6.3501,0 c 0,1.03282 0.28394,1.8247 0.8477,2.37731 0.49977,0.48302 1.13985,0.72444 1.92616,0.72444 0.89234,0 1.63893,-0.26095 2.23716,-0.78023 l 0.65699,1.12538 c -0.24143,0.24143 -0.61219,0.44937 -1.11194,0.62629 -0.62285,0.23027 -1.31938,0.34515 -2.08846,0.34515 -1.1057,0 -2.04646,-0.37632 -2.82112,-1.12867 -0.85886,-0.82816 -1.29148,-1.9396 -1.29148,-3.3376 0,-1.4538 0.44378,-2.61876 1.32496,-3.49484 0.7891,-0.78566 1.72379,-1.1761 2.80453,-1.1761 1.25472,0 2.23995,0.35367 2.95324,1.06122 0.69029,0.6793 1.03562,1.5805 1.03562,2.7031 0,0.34794 -0.0418,0.6652 -0.12326,0.95455 z m -3.78976,-3.40491 c -0.69884,0 -1.28279,0.22698 -1.75449,0.67635 -0.44887,0.42656 -0.70163,0.957 -0.7635,1.59429 l 4.8761,0 c 0,-0.63171 -0.19679,-1.15657 -0.59265,-1.57755 -0.43214,-0.46332 -1.02166,-0.69309 -1.76546,-0.69309 z m 10.34434,0.35353 c -0.33957,-0.23585 -0.68489,-0.35353 -1.03004,-0.35353 -0.55309,0 -1.0361,0.25537 -1.45151,0.76613 -0.4126,0.51092 -0.62022,1.1226 -0.62022,1.84146 l 0,5.05007 -1.56359,0 0,-8.80866 1.56359,0 0,1.40637 c 0.57,-1.04726 1.41754,-1.56933 2.54014,-1.56933 0.28114,0 0.68538,0.0476 1.21008,0.14618 l -0.64845,1.52125 z m 1.18168,6.77648 0.55309,-1.47942 c 0.87051,0.57001 1.57214,0.85607 2.10521,0.85607 0.96308,0 1.44593,-0.40702 1.44593,-1.21845 0,-0.58115 -0.4661,-1.08076 -1.398,-1.49614 -0.7187,-0.32858 -1.20122,-0.57837 -1.45101,-0.74956 -0.2498,-0.16838 -0.46628,-0.36188 -0.64862,-0.57821 -0.18512,-0.21597 -0.32004,-0.44624 -0.4126,-0.69045 -0.0898,-0.24422 -0.13497,-0.50517 -0.13497,-0.78583 0,-0.72427 0.26376,-1.28869 0.78894,-1.69571 0.52766,-0.40424 1.21534,-0.60627 2.06615,-0.60627 0.63974,0 1.44822,0.20203 2.42524,0.60627 l -0.44379,1.4487 c -0.62022,-0.49401 -1.24356,-0.74101 -1.86657,-0.74101 -0.37354,0 -0.68751,0.0898 -0.94304,0.26375 -0.25587,0.17675 -0.38192,0.39866 -0.38192,0.66797 0,0.56443 0.32005,0.99099 0.96308,1.28263 l 1.11701,0.50861 c 0.6849,0.31397 1.18449,0.66799 1.49615,1.06911 0.31445,0.40144 0.46891,0.90103 0.46891,1.50501 0,0.7886 -0.27541,1.40916 -0.83081,1.85524 -0.55325,0.44626 -1.31938,0.67093 -2.30198,0.67093 -0.9263,0 -1.79944,-0.23027 -2.61645,-0.69324 z m 10.75991,2.0238 c -0.20515,0.55866 -0.62908,1.02445 -1.28,1.398 -0.64844,0.37304 -1.37567,0.55883 -2.17577,0.55883 l 0,-1.39817 c 0.65403,0 1.21286,-0.15163 1.67897,-0.45494 0.46579,-0.30561 0.69885,-0.67635 0.69885,-1.11423 0,-0.48285 -0.0842,-0.9575 -0.25555,-1.42591 -0.16838,-0.46889 -0.39029,-1.05006 -0.65682,-1.74036 l -2.38619,-6.12803 1.59708,0 2.58856,6.80996 2.3271,-6.80996 1.59724,0 -3.73347,10.30481 z m 5.50173,-9.06961 -1.02166,0 0,-1.2352 1.02166,0 0,-1.84145 1.56081,-0.60102 0,2.44247 2.41966,0 0,1.2352 -2.41966,0 0,4.37306 c 0,0.74118 0.12615,1.26917 0.376,1.58051 0.2498,0.31166 0.65124,0.46889 1.20451,0.46889 0.39865,0 0.81405,-0.10098 1.24077,-0.30608 l 0.23026,1.37567 c -0.64582,0.16282 -1.35615,0.247 -2.12802,0.247 -0.69883,0 -1.2854,-0.26095 -1.76547,-0.77744 -0.48022,-0.51963 -0.71886,-1.17381 -0.71886,-1.96227 l 0,-4.99934 z m 13.53588,3.32071 -6.34991,0 c 0,1.03282 0.28377,1.8247 0.8477,2.37731 0.49958,0.48302 1.13982,0.72444 1.92597,0.72444 0.89234,0 1.63909,-0.26095 2.23732,-0.78023 l 0.65699,1.12538 c -0.24159,0.24143 -0.61233,0.44937 -1.11193,0.62629 -0.62301,0.23027 -1.31939,0.34515 -2.08846,0.34515 -1.10586,0 -2.04661,-0.37632 -2.82111,-1.12867 -0.85886,-0.82816 -1.29149,-1.93961 -1.29149,-3.3376 0,-1.4538 0.44379,-2.61876 1.32496,-3.49484 0.78894,-0.78566 1.72363,-1.1761 2.80437,-1.1761 1.25472,0 2.24012,0.35367 2.95323,1.06122 0.69047,0.6793 1.03562,1.5805 1.03562,2.7031 0,0.34794 -0.0418,0.6652 -0.12326,0.95455 z m -3.78976,-3.40491 c -0.69884,0 -1.28262,0.22698 -1.7543,0.67635 -0.44905,0.42656 -0.70163,0.957 -0.76351,1.59429 l 4.8761,0 c 0,-0.63171 -0.19678,-1.15657 -0.59265,-1.57755 -0.43231,-0.46332 -1.02168,-0.69309 -1.76564,-0.69309 z m 6.11686,0.0842 -1.02166,0 0,-1.23518 1.02166,0 0,-1.84147 1.56082,-0.60102 0,2.44249 2.41966,0 0,1.23518 -2.41966,0 0,4.37307 c 0,0.74117 0.12599,1.26916 0.37601,1.5805 0.24979,0.31167 0.65123,0.46889 1.2045,0.46889 0.39865,0 0.81404,-0.10098 1.24076,-0.30608 l 0.23027,1.37567 c -0.64584,0.16282 -1.35615,0.24702 -2.12802,0.24702 -0.69884,0 -1.28542,-0.26096 -1.76548,-0.77746 -0.48022,-0.51961 -0.71886,-1.17381 -0.71886,-1.96225 l 0,-4.99936 z m 15.40525,-2.99524 0,10.5687 -1.64516,0 0,-10.5687 -3.83163,0 0,-1.47941 9.48238,0 0,1.47941 -4.00559,0 z m 10.58299,6.31595 -6.34993,0 c 0,1.03282 0.28377,1.82472 0.8477,2.37731 0.49958,0.48302 1.13984,0.72444 1.92597,0.72444 0.89234,0 1.63911,-0.26095 2.23734,-0.78023 l 0.65699,1.12538 c -0.24161,0.24143 -0.61235,0.44937 -1.11194,0.6263 -0.62302,0.23027 -1.3194,0.34516 -2.08847,0.34516 -1.10587,0 -2.04661,-0.37634 -2.82111,-1.12868 -0.85886,-0.82817 -1.29149,-1.9396 -1.29149,-3.33761 0,-1.45379 0.44379,-2.61874 1.32497,-3.49483 0.78894,-0.78566 1.72362,-1.17611 2.80438,-1.17611 1.25472,0 2.2401,0.35369 2.95323,1.06122 0.69045,0.6793 1.0356,1.58051 1.0356,2.7031 0,0.34795 -0.0418,0.6652 -0.12326,0.95455 z m -3.78978,-3.40491 c -0.69882,0 -1.28261,0.22699 -1.7543,0.67635 -0.44905,0.42656 -0.70163,0.95701 -0.76351,1.5943 l 4.8761,0 c 0,-0.6317 -0.19678,-1.15656 -0.59265,-1.57755 -0.4323,-0.46332 -1.02166,-0.6931 -1.76564,-0.6931 z m 12.20255,-0.43556 -0.77465,1.10355 c -0.15725,-0.15997 -0.43772,-0.31167 -0.84197,-0.45216 -0.40439,-0.14282 -0.80025,-0.21583 -1.18725,-0.21583 -0.85099,0 -1.52455,0.29724 -2.0243,0.89218 -0.49958,0.5956 -0.74955,1.41211 -0.74955,2.44807 0,1.03003 0.25555,1.81634 0.76629,2.35499 0.50845,0.54211 1.21566,0.81142 2.12244,0.81142 0.70195,0 1.40916,-0.2721 2.12228,-0.81421 l 0.61464,1.31661 c -0.83933,0.54209 -1.87807,0.81421 -3.11571,0.81421 -1.20154,0 -2.19252,-0.40425 -2.97835,-1.21009 -0.78352,-0.80534 -1.1766,-1.89726 -1.1766,-3.27293 0,-1.40358 0.40704,-2.52948 1.22125,-3.37979 0.81699,-0.85049 1.93124,-1.27442 3.34318,-1.27442 0.45774,0 0.94912,0.0955 1.48221,0.28623 0.53076,0.19399 0.92351,0.39028 1.17609,0.59217 z m 7.12228,8.09322 0,-5.53587 c 0,-0.65682 -0.1628,-1.1761 -0.4858,-1.55195 -0.32283,-0.37911 -0.77728,-0.56984 -1.36402,-0.56984 -0.37913,0 -0.75826,0.11204 -1.13984,0.334 -0.38192,0.2214 -0.67356,0.48006 -0.87593,0.77728 l 0,6.54638 -1.56096,0 0,-12.41886 1.56096,0 0,4.58149 c 0.20794,-0.32282 0.54473,-0.59264 1.00756,-0.81125 0.46349,-0.21631 0.94075,-0.323 1.43475,-0.323 0.9319,0 1.66471,0.30625 2.1922,0.92073 0.53044,0.61464 0.79468,1.45101 0.79468,2.51502 l 0,5.53587 -1.5636,0 z m 9.19335,0 0,-5.1231 c 0,-0.93746 -0.14041,-1.59445 -0.42375,-1.97029 -0.28099,-0.37635 -0.75563,-0.56427 -1.41754,-0.56427 -0.35696,0 -0.73002,0.10932 -1.12031,0.32284 -0.38765,0.21304 -0.68766,0.47678 -0.89561,0.78844 l 0,6.54638 -1.56082,0 0,-8.80864 1.06682,0 0.494,1.13688 c 0.51632,-0.86756 1.35894,-1.29986 2.52668,-1.29986 1.92844,0 2.89414,1.17331 2.89414,3.51995 l 0,5.45167 -1.56361,0 z m 3.2055,-4.42394 c 0,-1.36173 0.36795,-2.45922 1.10077,-3.29559 0.72936,-0.83374 1.69523,-1.25209 2.88856,-1.25209 1.26309,0 2.24012,0.4016 2.936,1.20417 0.69605,0.80289 1.04399,1.91712 1.04399,3.34351 0,1.42033 -0.35631,2.54014 -1.06911,3.35993 -0.71032,0.8198 -1.68176,1.22962 -2.91088,1.22962 -1.2552,0 -2.23453,-0.4154 -2.93648,-1.24356 -0.70163,-0.82818 -1.05285,-1.94241 -1.05285,-3.34599 z m 1.645,0 c 0,2.20893 0.78352,3.3125 2.34433,3.3125 0.72954,0 1.30215,-0.29493 1.71476,-0.88724 0.41557,-0.59217 0.62072,-1.40079 0.62072,-2.42526 0,-2.18431 -0.77794,-3.27326 -2.33548,-3.27326 -0.71327,0 -1.28032,0.28935 -1.70688,0.87033 -0.42393,0.58118 -0.63745,1.38356 -0.63745,2.40293 z m 8.09323,1.93123 0,-9.92615 1.56361,0 0,9.66521 c 0,0.47119 0.13448,0.84194 0.40702,1.11406 0.27212,0.2695 0.6258,0.4072 1.0663,0.4072 l 0,1.398 c -2.0238,0 -3.03693,-0.88726 -3.03693,-2.65832 z m 4.26934,-1.93123 c 0,-1.36173 0.36796,-2.45922 1.10076,-3.29559 0.72954,-0.83374 1.69524,-1.25209 2.88857,-1.25209 1.26309,0 2.24013,0.4016 2.93616,1.20417 0.69589,0.80289 1.04399,1.91712 1.04399,3.34351 0,1.42033 -0.35648,2.54014 -1.06909,3.35993 -0.71049,0.8198 -1.68193,1.22962 -2.91106,1.22962 -1.25521,0 -2.23453,-0.4154 -2.93648,-1.24356 -0.70163,-0.82818 -1.05285,-1.94241 -1.05285,-3.34599 z m 1.64501,0 c 0,2.20893 0.78352,3.3125 2.34432,3.3125 0.72954,0 1.30215,-0.29493 1.71493,-0.88724 0.4154,-0.59217 0.62055,-1.40079 0.62055,-2.42526 0,-2.18431 -0.77778,-3.27326 -2.33548,-3.27326 -0.7131,0 -1.28032,0.28935 -1.70687,0.87033 -0.42377,0.58118 -0.63745,1.38356 -0.63745,2.40293 z m 7.64993,6.83245 0.84754,-1.24914 c 0.90957,0.6089 1.74889,0.9122 2.51781,0.9122 0.7049,0 1.26308,-0.12054 1.67307,-0.36469 0.40702,-0.24422 0.61217,-0.54751 0.61217,-0.90957 0,-0.71311 -0.51682,-1.06943 -1.54686,-1.06943 -0.17396,0 -0.49401,0.0447 -0.95469,0.1316 -0.46005,0.087 -0.81932,0.13207 -1.07469,0.13207 -1.25243,0 -1.87527,-0.47184 -1.87527,-1.41473 0,-0.28951 0.14602,-0.55325 0.43771,-0.7891 0.29493,-0.23585 0.65699,-0.40704 1.08913,-0.51076 -1.23799,-0.58116 -1.85821,-1.58887 -1.85821,-3.02594 0,-0.92072 0.323,-1.68734 0.96308,-2.30198 0.64255,-0.61448 1.43427,-0.92072 2.37733,-0.92072 0.86492,0 1.54406,0.17692 2.02987,0.53323 l 0.78303,-0.93748 1.01871,0.96307 -0.9373,0.70721 c 0.40144,0.51913 0.60052,1.20156 0.60052,2.03808 0,0.88956 -0.2777,1.63352 -0.83095,2.23732 -0.55261,0.60333 -1.27984,0.94864 -2.17808,1.03563 l -1.29149,0.13207 c -0.15404,0.0167 -0.35925,0.0758 -0.61743,0.17677 -0.25816,0.10098 -0.3875,0.23583 -0.3875,0.39865 0,0.22436 0.26983,0.33973 0.80569,0.33973 0.23601,0 0.60347,-0.0452 1.10307,-0.12935 0.49975,-0.0841 0.87051,-0.12615 1.11194,-0.12615 0.86443,0 1.54079,0.20484 2.02659,0.62022 0.48564,0.41262 0.72707,0.9882 0.72707,1.72363 0,0.81141 -0.3619,1.46561 -1.08897,1.9652 -0.72723,0.4996 -1.64796,0.74676 -2.75939,0.74676 -0.56985,0 -1.17102,-0.10146 -1.80224,-0.30345 -0.62908,-0.20189 -1.13705,-0.44889 -1.52126,-0.74103 z m 3.31463,-10.12246 c -0.54144,0 -0.98491,0.19071 -1.32776,0.57542 -0.34236,0.38471 -0.51353,0.85049 -0.51353,1.398 0,0.61464 0.16559,1.12261 0.49679,1.52684 0.33137,0.4016 0.78074,0.60349 1.3445,0.60349 0.55325,0 0.98539,-0.19631 1.29986,-0.58954 0.31182,-0.38979 0.46905,-0.90382 0.46905,-1.54079 0,-0.54751 -0.16838,-1.01329 -0.50532,-1.398 -0.33679,-0.38471 -0.75777,-0.57542 -1.26359,-0.57542 z m 7.07436,-4.42392 c 0.26654,0 0.49679,0.0925 0.68489,0.28327 0.19071,0.18791 0.28328,0.41555 0.28328,0.6793 0,0.26703 -0.0925,0.4968 -0.28328,0.68522 -0.1881,0.19071 -0.41835,0.28328 -0.68489,0.28328 -0.26374,0 -0.49122,-0.0925 -0.67931,-0.28328 -0.18842,-0.18842 -0.28377,-0.41819 -0.28377,-0.68522 0,-0.26949 0.0925,-0.49697 0.28098,-0.68489 0.1853,-0.18512 0.41278,-0.27768 0.6821,-0.27768 z m -0.85655,12.13787 0,-7.49205 -1.2096,0 0,-1.31659 2.77335,0 0,8.80864 -1.56375,0 z m 10.69244,-8.09322 -0.77466,1.10355 c -0.15724,-0.15997 -0.43771,-0.31167 -0.84194,-0.45216 -0.40441,-0.14282 -0.80027,-0.21583 -1.18727,-0.21583 -0.85099,0 -1.52454,0.29724 -2.0243,0.89218 -0.49959,0.5956 -0.74938,1.41211 -0.74938,2.44807 0,1.03003 0.25537,1.81634 0.76611,2.35499 0.50847,0.54211 1.21568,0.81142 2.12245,0.81142 0.70196,0 1.40915,-0.2721 2.12228,-0.81421 l 0.61464,1.31661 c -0.83934,0.54209 -1.87807,0.81421 -3.11572,0.81421 -1.20153,0 -2.19252,-0.40425 -2.97833,-1.21009 -0.78354,-0.80534 -1.17661,-1.89726 -1.17661,-3.27293 0,-1.40358 0.40719,-2.52948 1.22125,-3.37979 0.81701,-0.85049 1.93123,-1.27442 3.34318,-1.27442 0.45774,0 0.94913,0.0955 1.4822,0.28623 0.53076,0.19399 0.92352,0.39028 1.1761,0.59217 z m 3.36322,6.69522 4.88446,0 0,1.398 -7.33482,0 0,-0.40997 5.00772,-7.00067 -4.92633,0 0,-1.398 7.206,0 0,0.44329 -4.83703,6.96735 z m 11.74513,1.398 0,-5.1231 c 0,-0.93746 -0.14041,-1.59445 -0.42377,-1.97029 -0.28098,-0.37635 -0.75563,-0.56427 -1.41752,-0.56427 -0.35698,0 -0.73003,0.10932 -1.12032,0.32284 -0.38748,0.21304 -0.68767,0.47678 -0.89561,0.78844 l 0,6.54638 -1.56081,0 0,-8.80864 1.0668,0 0.49401,1.13688 c 0.5165,-0.86756 1.35894,-1.29986 2.52667,-1.29986 1.92845,0 2.89415,1.17331 2.89415,3.51995 l 0,5.45167 -1.5636,0 z m 7.14691,1.49615 c -0.20516,0.55867 -0.62893,1.02445 -1.27984,1.398 -0.64861,0.37305 -1.37568,0.55884 -2.17595,0.55884 l 0,-1.39817 c 0.6542,0 1.21287,-0.15164 1.67915,-0.45495 0.46562,-0.30559 0.69866,-0.67635 0.69866,-1.11423 0,-0.48285 -0.0842,-0.9575 -0.25537,-1.42591 -0.16838,-0.46889 -0.39028,-1.05004 -0.65699,-1.74034 l -2.38602,-6.12803 1.59709,0 2.58855,6.80996 2.3271,-6.80996 1.59708,0 -3.73346,10.30479 z" />
    <path
       inkscape:connector-curvature="0"
       id="path4152"
       style="fill:#003d8f;fill-rule:evenodd"
       d="m 245.02835,539.86896 0,-0.40981 5.1817,-10.15874 -5.10029,0 0,-1.47955 7.36042,0 0,0.40997 -5.19631,10.15873 5.37865,0 0,1.4794 -7.62417,0 z m 14.53227,-1.01051 c -0.62563,0.78304 -1.58313,1.17612 -2.86853,1.17612 -0.69376,0 -1.29149,-0.2526 -1.79946,-0.75219 -0.50532,-0.50254 -0.7607,-1.12588 -0.7607,-1.87265 0,-0.89232 0.39308,-1.6473 1.17331,-2.26522 0.78024,-0.61727 1.77664,-0.92615 2.98951,-0.92615 0.32857,0 0.70211,0.0731 1.11751,0.21304 0,-1.42312 -0.6345,-2.1359 -1.90597,-2.1359 -0.97702,0 -1.72937,0.26096 -2.25455,0.78861 l -0.65978,-1.30822 c 0.29772,-0.24111 0.70771,-0.44626 1.22962,-0.62022 0.52535,-0.17398 1.02495,-0.25818 1.50189,-0.25818 1.27736,0 2.20646,0.28886 2.78483,0.87003 0.57821,0.581 0.86706,1.50452 0.86706,2.77368 l 0,3.15789 c 0,0.77186 0.23043,1.28836 0.69096,1.54373 l 0,0.78336 c -0.63745,0 -1.11192,-0.0925 -1.4259,-0.2721 -0.31726,-0.18006 -0.54209,-0.48007 -0.6798,-0.89563 z m -0.14842,-3.31511 c -0.49401,-0.10932 -0.83966,-0.16561 -1.03612,-0.16561 -0.78844,0 -1.43426,0.20467 -1.93106,0.6089 -0.49976,0.40702 -0.74955,0.88724 -0.74955,1.44035 0,0.91515 0.5388,1.37239 1.61956,1.37239 0.78894,0 1.48778,-0.37585 2.09717,-1.1254 l 0,-2.13063 z m 10.66684,-3.76745 -0.77465,1.10357 c -0.15725,-0.16013 -0.43772,-0.31184 -0.84213,-0.45234 -0.40423,-0.14281 -0.80009,-0.21581 -1.18727,-0.21581 -0.85081,0 -1.52453,0.29722 -2.02412,0.89233 -0.49976,0.59544 -0.74955,1.41194 -0.74955,2.44806 0,1.03003 0.25538,1.81618 0.76629,2.35501 0.50846,0.54193 1.21566,0.81125 2.12244,0.81125 0.70196,0 1.40916,-0.27211 2.12228,-0.81404 l 0.61464,1.31659 c -0.83933,0.54193 -1.87823,0.81406 -3.11571,0.81406 -1.20172,0 -2.19252,-0.40425 -2.97834,-1.21008 -0.78353,-0.8052 -1.17661,-1.89711 -1.17661,-3.27279 0,-1.40358 0.40704,-2.52946 1.22125,-3.37995 0.81701,-0.85049 1.93124,-1.27426 3.34318,-1.27426 0.45774,0 0.94896,0.0954 1.48221,0.28607 0.53076,0.194 0.92351,0.39046 1.17609,0.59233 z m 7.12212,8.09307 0,-5.5357 c 0,-0.65699 -0.1628,-1.17612 -0.48564,-1.55212 -0.32283,-0.37912 -0.77744,-0.56983 -1.36402,-0.56983 -0.37913,0 -0.75842,0.11204 -1.13984,0.33398 -0.38192,0.22157 -0.67372,0.48022 -0.87609,0.77746 l 0,6.54621 -1.5608,0 0,-12.41887 1.5608,0 0,4.58167 c 0.20794,-0.32284 0.54489,-0.59281 1.00772,-0.81143 0.46349,-0.21631 0.94075,-0.32284 1.43475,-0.32284 0.9319,0 1.66471,0.30611 2.1922,0.92075 0.53044,0.61446 0.79468,1.45101 0.79468,2.51502 l 0,5.5357 -1.56376,0 z m 3.19711,-4.42377 c 0,-1.36173 0.36798,-2.45922 1.10078,-3.29576 0.72952,-0.83374 1.69523,-1.25194 2.88857,-1.25194 1.26309,0 2.24011,0.40146 2.93616,1.20403 0.69588,0.80304 1.04399,1.91727 1.04399,3.34367 0,1.42032 -0.35648,2.54012 -1.0691,3.35976 -0.7105,0.81979 -1.68194,1.22962 -2.91105,1.22962 -1.25521,0 -2.23454,-0.41541 -2.93649,-1.24357 -0.70163,-0.828 -1.05286,-1.94223 -1.05286,-3.34581 z m 1.64501,0 c 0,2.20876 0.78354,3.31233 2.34434,3.31233 0.72952,0 1.30215,-0.29493 1.71491,-0.88709 0.4154,-0.59233 0.62056,-1.40095 0.62056,-2.42524 0,-2.18431 -0.77779,-3.27344 -2.33547,-3.27344 -0.71312,0 -1.28033,0.28936 -1.70689,0.87051 -0.42375,0.581 -0.63745,1.38356 -0.63745,2.40293 z m 13.55591,4.4154 0,-0.64845 c -0.54472,0.54194 -1.33334,0.81404 -2.36944,0.81404 -1.10291,0 -1.99573,-0.39586 -2.68063,-1.18446 -0.68472,-0.78894 -1.02758,-1.8418 -1.02758,-3.15791 0,-1.32217 0.39308,-2.45084 1.18481,-3.38553 0.78861,-0.93516 1.72936,-1.40079 2.81849,-1.40079 0.9122,0 1.60266,0.21304 2.07435,0.64008 l 0,-4.08748 1.56097,0 0,12.4105 -1.56097,0 z m 0,-6.75974 c -0.39586,-0.59232 -0.93501,-0.88954 -1.6199,-0.88954 -0.83932,0 -1.51846,0.31396 -2.03496,0.93746 -0.5196,0.62614 -0.77778,1.42032 -0.77778,2.38618 0,2.12196 0.96308,3.18301 2.89415,3.18301 0.247,0 0.54209,-0.0787 0.88724,-0.23583 0.34517,-0.15436 0.56426,-0.32005 0.65125,-0.49682 l 0,-4.88446 z m 9.21863,6.76811 0,-5.12311 c 0,-0.93746 -0.14041,-1.59429 -0.42393,-1.97029 -0.28099,-0.37633 -0.75547,-0.56425 -1.41754,-0.56425 -0.3568,0 -0.72986,0.10932 -1.1203,0.32282 -0.3875,0.21304 -0.68751,0.47694 -0.89546,0.78862 l 0,6.54621 -1.5608,0 0,-8.80865 1.06664,0 0.49416,1.13704 c 0.51634,-0.86772 1.35894,-1.29986 2.52668,-1.29986 1.92828,0 2.89415,1.17333 2.89415,3.51997 l 0,5.4515 -1.5636,0 z m 5.39521,-12.13788 c 0.26654,0 0.49697,0.0925 0.68489,0.28344 0.19071,0.18792 0.28328,0.41538 0.28328,0.67914 0,0.26702 -0.0925,0.49696 -0.28328,0.68538 -0.18792,0.19071 -0.41835,0.28327 -0.68489,0.28327 -0.26374,0 -0.49122,-0.0925 -0.67915,-0.28327 -0.1884,-0.18842 -0.28375,-0.41836 -0.28375,-0.68538 0,-0.26933 0.0925,-0.4968 0.28097,-0.68472 0.18513,-0.18529 0.41261,-0.27786 0.68193,-0.27786 z m -0.85639,12.13788 0,-7.49205 -1.20959,0 0,-1.3166 2.77318,0 0,8.80865 -1.56359,0 z m 3.46956,-4.42377 c 0,-1.36173 0.36812,-2.45922 1.10077,-3.29576 0.72953,-0.83374 1.6954,-1.25194 2.88873,-1.25194 1.26309,0 2.23995,0.40146 2.936,1.20403 0.69605,0.80304 1.04399,1.91727 1.04399,3.34367 0,1.42032 -0.35632,2.54012 -1.06911,3.35976 -0.71048,0.81979 -1.68176,1.22962 -2.91088,1.22962 -1.25522,0 -2.23453,-0.41541 -2.93666,-1.24357 -0.70145,-0.828 -1.05284,-1.94223 -1.05284,-3.34581 z m 1.64517,0 c 0,2.20876 0.78336,3.31233 2.34433,3.31233 0.72936,0 1.30215,-0.29493 1.71476,-0.88709 0.41539,-0.59233 0.62054,-1.40095 0.62054,-2.42524 0,-2.18431 -0.77778,-3.27344 -2.3353,-3.27344 -0.71328,0 -1.28032,0.28936 -1.70704,0.87051 -0.42377,0.581 -0.63729,1.38356 -0.63729,2.40293 z m 9.53292,3.93812 0,3.93864 -1.56081,0 0,-12.26164 1.56081,0 0,0.72444 c 0.59231,-0.59281 1.30823,-0.88726 2.14754,-0.88726 1.24914,0 2.22338,0.3875 2.91943,1.16775 0.69637,0.77745 1.04431,1.91711 1.04431,3.41901 0,1.33891 -0.35073,2.43082 -1.05268,3.27884 -0.70163,0.84771 -1.71492,1.27148 -3.04267,1.27148 -0.37355,0 -0.77237,-0.0675 -1.19614,-0.1991 -0.42655,-0.13208 -0.69884,-0.28097 -0.81979,-0.45216 z m 0,-6.42246 0,5.13147 c 0.0983,0.14843 0.30904,0.28886 0.62629,0.42377 0.31725,0.13448 0.62564,0.20187 0.9291,0.20187 1.93944,0 2.91088,-1.09748 2.91088,-3.29 0,-1.11424 -0.23025,-1.92846 -0.69046,-2.44199 -0.46052,-0.5165 -1.19876,-0.77466 -2.21205,-0.77466 -0.2191,0 -0.48859,0.0787 -0.80584,0.22976 -0.32004,0.15452 -0.56984,0.32857 -0.75792,0.51978 z m 7.24505,2.48434 c 0,-1.36173 0.36813,-2.45922 1.10077,-3.29576 0.72952,-0.83374 1.69539,-1.25194 2.88856,-1.25194 1.26326,0 2.24012,0.40146 2.93616,1.20403 0.69605,0.80304 1.04399,1.91727 1.04399,3.34367 0,1.42032 -0.35631,2.54012 -1.06909,3.35976 -0.7105,0.81979 -1.68178,1.22962 -2.91106,1.22962 -1.25504,0 -2.23437,-0.41541 -2.93648,-1.24357 -0.70147,-0.828 -1.05285,-1.94223 -1.05285,-3.34581 z m 1.64516,0 c 0,2.20876 0.78336,3.31233 2.34417,3.31233 0.72954,0 1.30233,-0.29493 1.71492,-0.88709 0.41541,-0.59233 0.62056,-1.40095 0.62056,-2.42524 0,-2.18431 -0.77778,-3.27344 -2.33548,-3.27344 -0.71311,0 -1.28016,0.28936 -1.70688,0.87051 -0.42377,0.581 -0.63729,1.38356 -0.63729,2.40293 z m 18.1676,4.42377 0,-5.57477 c 0,-1.38684 -0.60052,-2.08288 -1.79895,-2.08288 -0.37913,0 -0.7328,0.11765 -1.06122,0.35073 -0.32841,0.23306 -0.55309,0.49696 -0.67372,0.79468 l 0,6.51224 -1.5636,0 0,-6.25966 c 0,-0.43262 -0.16282,-0.77219 -0.48843,-1.02216 -0.32841,-0.24979 -0.75792,-0.37583 -1.29706,-0.37583 -0.31135,0 -0.64534,0.12054 -0.99935,0.36189 -0.35352,0.24158 -0.60331,0.50813 -0.75235,0.80027 l 0,6.49549 -1.56081,0 0,-8.80865 1.01937,0 0.51634,1.02167 c 0.60349,-0.79141 1.3586,-1.18449 2.26244,-1.18449 1.26029,0 2.14475,0.39029 2.64714,1.17612 0.17691,-0.33399 0.50254,-0.61464 0.97981,-0.83933 0.47728,-0.22468 0.96865,-0.33679 1.47103,-0.33679 0.91236,0 1.61678,0.26934 2.11358,0.80864 0.49958,0.54144 0.74955,1.29936 0.74955,2.27343 l 0,5.8894 -1.56377,0 z m 3.20549,-4.42377 c 0,-1.36173 0.36796,-2.45922 1.10077,-3.29576 0.72953,-0.83374 1.69524,-1.25194 2.88857,-1.25194 1.26308,0 2.24012,0.40146 2.93616,1.20403 0.69589,0.80304 1.04399,1.91727 1.04399,3.34367 0,1.42032 -0.35648,2.54012 -1.06909,3.35976 -0.7105,0.81979 -1.68194,1.22962 -2.91106,1.22962 -1.25522,0 -2.23453,-0.41541 -2.93648,-1.24357 -0.70163,-0.828 -1.05286,-1.94223 -1.05286,-3.34581 z m 1.64501,0 c 0,2.20876 0.78352,3.31233 2.34433,3.31233 0.72953,0 1.30215,-0.29493 1.71492,-0.88709 0.4154,-0.59233 0.62056,-1.40095 0.62056,-2.42524 0,-2.18431 -0.77779,-3.27344 -2.33548,-3.27344 -0.71311,0 -1.28032,0.28936 -1.70688,0.87051 -0.42377,0.581 -0.63745,1.38356 -0.63745,2.40293 z m 12.75859,-2.88036 c -0.33973,-0.23585 -0.68488,-0.35352 -1.03003,-0.35352 -0.55326,0 -1.03612,0.25537 -1.4515,0.76629 -0.41278,0.51074 -0.62022,1.1226 -0.62022,1.8413 l 0,5.05006 -1.56361,0 0,-8.80865 1.56361,0 0,1.40637 c 0.57,-1.04727 1.41752,-1.56919 2.54012,-1.56919 0.28098,0 0.68537,0.0475 1.21008,0.14603 l -0.64845,1.52126 z m 1.18169,6.77663 0.5531,-1.47939 c 0.8705,0.56982 1.57196,0.85589 2.10521,0.85589 0.96307,0 1.44591,-0.40702 1.44591,-1.21845 0,-0.581 -0.4661,-1.08058 -1.39799,-1.49615 -0.71886,-0.32839 -1.20123,-0.5782 -1.45102,-0.74938 -0.24996,-0.16855 -0.46627,-0.36205 -0.64861,-0.57836 -0.18513,-0.21583 -0.32005,-0.4461 -0.41261,-0.69048 -0.0898,-0.24421 -0.13497,-0.50516 -0.13497,-0.78565 0,-0.72444 0.26374,-1.2887 0.78894,-1.69588 0.52765,-0.40423 1.21516,-0.60612 2.06615,-0.60612 0.63974,0 1.44822,0.20189 2.42524,0.60612 l -0.44379,1.44888 c -0.62022,-0.49417 -1.24356,-0.74118 -1.86657,-0.74118 -0.37354,0 -0.68751,0.0898 -0.94306,0.26374 -0.25587,0.17677 -0.3819,0.39881 -0.3819,0.66815 0,0.56426 0.32003,0.99096 0.96307,1.28262 l 1.11702,0.50845 c 0.68472,0.31414 1.18447,0.66815 1.49615,1.06909 0.31445,0.40146 0.46889,0.90121 0.46889,1.50501 0,0.78862 -0.27539,1.40916 -0.83079,1.85542 -0.55325,0.44608 -1.31938,0.67078 -2.30198,0.67078 -0.92632,0 -1.79962,-0.23027 -2.61645,-0.69311 z m 13.08683,0.5275 -2.76481,-4.40703 -1.36451,1.40637 0,3.00066 -1.56081,0 0,-12.41887 1.56081,0 0,7.70559 3.37158,-4.09537 1.82735,0 -2.82112,3.34876 3.44413,5.45989 -1.69262,0 z m 4.41558,-12.13788 c 0.26654,0 0.49679,0.0925 0.68488,0.28344 0.19071,0.18792 0.28327,0.41538 0.28327,0.67914 0,0.26702 -0.0925,0.49696 -0.28327,0.68538 -0.18809,0.19071 -0.41834,0.28327 -0.68488,0.28327 -0.26374,0 -0.49122,-0.0925 -0.6793,-0.28327 -0.18842,-0.18842 -0.28378,-0.41836 -0.28378,-0.68538 0,-0.26933 0.0925,-0.4968 0.28099,-0.68472 0.18529,-0.18529 0.41276,-0.27786 0.68209,-0.27786 z m -0.85657,12.13788 0,-7.49205 -1.20958,0 0,-1.3166 2.77336,0 0,8.80865 -1.56378,0 z" />
  </g>
</svg>
